HIERARCHY
ROOT Hips
{
 OFFSET 0.000000 0.000000 0.000000
 CHANNELS 6 Xposition Yposition Zposition Yrotation Xrotation Zrotation
 JOINT Chest
 {
  OFFSET 0.000000 9.585900 0.002600
  CHANNELS 3 Yrotation Xrotation Zrotation
  JOINT Chest2
  {
   OFFSET 0.000000 9.601200 -0.005300
   CHANNELS 3 Yrotation Xrotation Zrotation
   JOINT Chest3
   {
    OFFSET 0.000000 9.561800 0.000000
    CHANNELS 3 Yrotation Xrotation Zrotation
    JOINT Chest4
    {
     OFFSET 0.000000 9.552100 0.000000
     CHANNELS 3 Yrotation Xrotation Zrotation
     JOINT Neck
     {
      OFFSET 0.000000 14.453000 0.000000
      CHANNELS 3 Yrotation Xrotation Zrotation
      JOINT Head
      {
       OFFSET 0.000000 8.936500 -0.011300
       CHANNELS 3 Yrotation Xrotation Zrotation
       End Site
       {
        OFFSET 0.000000 17.073600 -0.006000
       }
      }
     }
     JOINT RightCollar
     {
      OFFSET -2.921100 9.558500 0.000000
      CHANNELS 3 Yrotation Xrotation Zrotation
      JOINT RightShoulder
      {
       OFFSET -13.519700 0.000000 0.000000
       CHANNELS 3 Yrotation Xrotation Zrotation
       JOINT RightElbow
       {
        OFFSET 0.000000 -29.696600 0.000000
        CHANNELS 3 Yrotation Xrotation Zrotation
        JOINT RightWrist
        {
         OFFSET 0.000000 -24.004700 0.000000
         CHANNELS 3 Yrotation Xrotation Zrotation
         End Site
         {
          OFFSET 0.000000 -17.728500 0.000000
         }
        }
       }
      }
     }
     JOINT LeftCollar
     {
      OFFSET 2.921100 9.558500 0.000000
      CHANNELS 3 Yrotation Xrotation Zrotation
      JOINT LeftShoulder
      {
       OFFSET 13.519700 0.000000 0.000000
       CHANNELS 3 Yrotation Xrotation Zrotation
       JOINT LeftElbow
       {
        OFFSET 0.000000 -29.696600 0.000000
        CHANNELS 3 Yrotation Xrotation Zrotation
        JOINT LeftWrist
        {
         OFFSET 0.000000 -24.004700 0.000000
         CHANNELS 3 Yrotation Xrotation Zrotation
         End Site
         {
          OFFSET 0.000000 -17.728500 0.000000
         }
        }
       }
      }
     }
    }
   }
  }
 }
 JOINT RightHip
 {
  OFFSET -7.771700 -0.012900 -0.001300
  CHANNELS 3 Yrotation Xrotation Zrotation
  JOINT RightKnee
  {
   OFFSET 0.000000 -40.869800 0.001200
   CHANNELS 3 Yrotation Xrotation Zrotation
   JOINT RightAnkle
   {
    OFFSET 0.000000 -39.717900 0.002100
    CHANNELS 3 Yrotation Xrotation Zrotation
    JOINT RightToe
    {
     OFFSET 0.000000 -4.965400 11.033500
     CHANNELS 3 Yrotation Xrotation Zrotation
     End Site
     {
      OFFSET 0.000000 -1.423100 5.872300
     }
    }
   }
  }
 }
 JOINT LeftHip
 {
  OFFSET 7.771700 -0.012900 -0.001300
  CHANNELS 3 Yrotation Xrotation Zrotation
  JOINT LeftKnee
  {
   OFFSET 0.000000 -40.869800 0.001200
   CHANNELS 3 Yrotation Xrotation Zrotation
   JOINT LeftAnkle
   {
    OFFSET 0.000000 -39.717900 0.002100
    CHANNELS 3 Yrotation Xrotation Zrotation
    JOINT LeftToe
    {
     OFFSET 0.000000 -4.965400 11.033500
     CHANNELS 3 Yrotation Xrotation Zrotation
     End Site
     {
      OFFSET 0.000000 -1.423100 5.872300
     }
    }
   }
  }
 }
}
MOTION
Frames: 15
Frame Time: 0.008333
-145.256360 51.648575 -60.527097 176.392498 -18.934569 0.157221 -1.853490 12.325566 0.761801 -0.137531 0.929790 0.105545 -0.247472 1.586063 0.176443 -1.660610 11.208054 1.110509 -2.215283 18.267019 -2.686180 -1.730021 -6.445218 -2.343077 0.986667 16.742977 9.411087 38.443255 -3.064313 -30.279034 98.667136 -77.131252 -129.266594 1.093834 8.028680 -0.586757 -0.751510 15.013354 -13.912829 -37.174474 2.048954 29.911033 -66.532185 -69.126696 105.388144 12.548041 0.770830 -2.019279 -12.545543 -63.610683 6.733302 -64.396893 82.288100 -72.479403 -2.325962 -5.323722 6.388417 0.239193 -0.638590 0.101712 11.550418 -61.936585 -7.947594 33.356740 86.771336 38.850178 -3.503702 -13.204565 1.175171 0.059369 0.231136 0.008803
-145.255661 51.649060 -60.524650 176.375944 -18.935260 0.159882 -1.845570 12.326075 0.761400 -0.146140 0.930165 0.104087 -0.248251 1.587222 0.175989 -1.665415 11.212054 1.106877 -2.202492 18.261659 -2.686577 -1.727414 -6.449455 -2.344594 0.991527 16.741185 9.402053 38.428080 -3.070434 -30.272555 98.729233 -77.125357 -129.310908 1.097695 8.023946 -0.587273 -0.726145 15.015697 -13.900252 -37.139542 2.084611 29.932908 -66.634993 -69.158377 105.481570 12.548816 0.771701 -2.021033 -12.545550 -63.607760 6.743647 -64.334782 82.277125 -72.411491 -2.320314 -5.309631 6.379281 0.241400 -0.642388 0.101865 11.541855 -61.935379 -7.928226 33.382298 86.767705 38.870499 -3.502649 -13.204328 1.177874 0.059043 0.233366 0.010176
-145.253592 51.648999 -60.520163 176.353530 -18.923643 0.151991 -1.845914 12.317811 0.771605 -0.133911 0.928154 0.104656 -0.265529 1.592751 0.174674 -1.686994 11.217838 1.099393 -2.186223 18.244623 -2.691088 -1.700920 -6.450455 -2.353008 1.018352 16.728141 9.389401 38.421347 -3.066967 -30.265163 98.747846 -77.120051 -129.334626 1.098945 8.018259 -0.586689 -0.673197 15.014339 -13.892522 -37.125811 2.095814 29.943731 -66.667800 -69.169339 105.509110 12.540002 0.784359 -2.022150 -12.569375 -63.614299 6.784258 -64.260926 82.253082 -72.321852 -2.308791 -5.287043 6.354930 0.252324 -0.647376 0.108460 11.522299 -61.950206 -7.890171 33.384644 86.767287 38.871091 -3.498861 -13.207625 1.174740 0.057760 0.238202 0.011264
-145.254225 51.649726 -60.517945 176.345078 -18.924907 0.153121 -1.850515 12.323698 0.768674 -0.135885 0.925905 0.105712 -0.265105 1.597029 0.173429 -1.692927 11.221744 1.097616 -2.178203 18.233360 -2.692592 -1.698232 -6.462111 -2.353580 1.007552 16.721791 9.379997 38.427999 -3.059468 -30.265361 98.740982 -77.112527 -129.328581 1.121525 8.038361 -0.599091 -0.652522 15.015244 -13.882321 -37.080130 2.139503 29.972012 -66.762693 -69.202775 105.587768 12.549044 0.787433 -2.028149 -12.584594 -63.609795 6.793874 -64.189236 82.248542 -72.246050 -2.296336 -5.276060 6.343720 0.246781 -0.648256 0.108175 11.509284 -61.949135 -7.873947 33.356536 86.764955 38.836748 -3.495065 -13.205953 1.176594 0.056521 0.238530 0.011948
-145.256091 51.650815 -60.516822 176.341297 -18.931908 0.157512 -1.862144 12.335127 0.758507 -0.149076 0.933131 0.103492 -0.253268 1.592277 0.175272 -1.692233 11.223249 1.097700 -2.177655 18.224549 -2.694496 -1.685899 -6.488706 -2.358114 1.012010 16.715458 9.377051 38.422976 -3.051778 -30.267430 98.725511 -77.109400 -129.308792 1.117299 8.034827 -0.599102 -0.637345 15.012860 -13.876293 -37.027733 2.189841 29.998104 -66.861792 -69.239140 105.673859 12.562854 0.783030 -2.050823 -12.593212 -63.602433 6.791964 -64.131245 82.250927 -72.189175 -2.287652 -5.258696 6.340752 0.243139 -0.659284 0.103425 11.500472 -61.940387 -7.869563 33.415577 86.759226 38.891601 -3.495671 -13.204134 1.178233 0.055859 0.238286 0.011311
-145.259494 51.651796 -60.515527 176.337970 -18.936355 0.168556 -1.869274 12.341231 0.743999 -0.156805 0.936216 0.101420 -0.254010 1.594140 0.175153 -1.680243 11.219282 1.100728 -2.185129 18.221816 -2.695907 -1.675977 -6.502313 -2.359311 0.977877 16.718783 9.366014 38.456209 -3.048256 -30.268571 98.614358 -77.110489 -129.201196 1.109809 8.019264 -0.598759 -0.632420 15.015386 -13.871134 -36.977933 2.229326 30.014300 -66.853323 -69.240997 105.639939 12.594430 0.759332 -2.060197 -12.610222 -63.598668 6.782005 -64.032233 82.263601 -72.097288 -2.258825 -5.243040 6.341045 0.220700 -0.670149 0.091020 11.506980 -61.933116 -7.883609 33.416960 86.755461 38.890736 -3.495732 -13.198175 1.175768 0.059666 0.234422 0.014312
-145.258861 51.651880 -60.511466 176.323120 -18.924006 0.156779 -1.860676 12.331587 0.756046 -0.160494 0.939298 0.101443 -0.254450 1.596224 0.174997 -1.691748 11.225051 1.095739 -2.168733 18.210156 -2.693032 -1.669156 -6.516840 -2.358832 0.987127 16.710839 9.365062 38.457622 -3.035627 -30.273695 98.567044 -77.116936 -129.161291 1.110129 8.011222 -0.598195 -0.605260 15.011453 -13.855228 -36.926313 2.262277 30.022238 -66.932024 -69.256743 105.704131 12.598259 0.755616 -2.079606 -12.657249 -63.608457 6.831504 -63.945286 82.249534 -71.997826 -2.246186 -5.195512 6.313867 0.230293 -0.692116 0.097261 11.473840 -61.950145 -7.841915 33.461259 86.753362 38.930692 -3.488305 -13.199943 1.170649 0.053233 0.237164 0.015156
-145.260404 51.653073 -60.510850 176.314803 -18.931607 0.156620 -1.872749 12.347625 0.748565 -0.149775 0.936882 0.103435 -0.254564 1.598450 0.174843 -1.695518 11.231432 1.096589 -2.158139 18.196713 -2.692785 -1.666649 -6.524192 -2.358175 0.987849 16.703128 9.361513 38.437462 -3.013358 -30.280077 98.540983 -77.129186 -129.145708 1.112421 7.985666 -0.579753 -0.592082 15.025108 -13.831231 -36.878453 2.271919 30.027760 -66.989233 -69.265228 105.753085 12.576236 0.765331 -2.109845 -12.668937 -63.600223 6.838787 -63.887945 82.250733 -71.939094 -2.234292 -5.169262 6.305107 0.224676 -0.700885 0.097134 11.464538 -61.941366 -7.831816 33.528094 86.748540 39.001466 -3.494093 -13.202571 1.161300 0.058729 0.238436 0.020613
-145.262773 51.654341 -60.510488 176.309420 -18.939649 0.160761 -1.874243 12.359501 0.740480 -0.151276 0.939845 0.103033 -0.253137 1.598389 0.175248 -1.697794 11.239205 1.094068 -2.150080 18.183230 -2.688322 -1.664340 -6.531519 -2.356877 0.987895 16.694836 9.361310 38.435071 -3.010532 -30.282160 98.577624 -77.131624 -129.179163 1.122589 8.008249 -0.573754 -0.581371 15.018030 -13.820594 -36.854285 2.285517 30.030441 -66.940541 -69.256108 105.708381 12.591807 0.744292 -2.123034 -12.669255 -63.591279 6.833097 -63.836497 82.255167 -71.889371 -2.225593 -5.156872 6.303439 0.212185 -0.683727 0.094028 11.465715 -61.931805 -7.835400 33.452992 86.750890 38.928703 -3.486346 -13.199643 1.158553 0.061412 0.235279 0.021745
-145.263119 51.655510 -60.509642 176.306738 -18.944746 0.152571 -1.871527 12.366323 0.747630 -0.154222 0.943972 0.102165 -0.250227 1.595314 0.176138 -1.703843 11.254620 1.089607 -2.146228 18.170307 -2.685173 -1.660881 -6.545808 -2.354312 0.989747 16.682949 9.359980 38.413407 -3.002625 -30.283609 98.561768 -77.137215 -129.157699 1.117691 7.998728 -0.555614 -0.570773 15.007175 -13.810959 -36.831414 2.300403 30.031717 -66.958323 -69.257575 105.727127 12.568329 0.757387 -2.134168 -12.688874 -63.582971 6.850095 -63.814821 82.251845 -71.856901 -2.229166 -5.145696 6.284977 0.222556 -0.680344 0.099876 11.447834 -61.929109 -7.817930 33.458307 86.751350 38.937858 -3.482814 -13.196668 1.156323 0.060588 0.232749 0.021179
-145.263541 51.656818 -60.509007 176.306495 -18.950625 0.145245 -1.875009 12.378228 0.751927 -0.150420 0.940123 0.103688 -0.255594 1.603551 0.175276 -1.708088 11.263430 1.090168 -2.139701 18.158801 -2.684008 -1.654269 -6.558750 -2.354387 0.996691 16.670477 9.352311 38.386322 -3.000874 -30.287352 98.436364 -77.158321 -129.023666 1.106656 7.968413 -0.543296 -0.554111 15.021330 -13.794817 -36.793094 2.305559 30.039869 -67.050606 -69.270725 105.812471 12.546797 0.769929 -2.143364 -12.707413 -63.573963 6.864431 -63.790602 82.251989 -71.824046 -2.236744 -5.138654 6.269709 0.232561 -0.677993 0.104275 11.431980 -61.924408 -7.802489 33.466321 86.750427 38.947912 -3.482716 -13.196410 1.156471 0.059351 0.232924 0.020704
-145.264398 51.657883 -60.507412 176.301926 -18.949936 0.142722 -1.877639 12.385734 0.754002 -0.151005 0.941394 0.103764 -0.256545 1.605626 0.175477 -1.720143 11.285797 1.091151 -2.132798 18.146164 -2.682252 -1.643107 -6.577025 -2.358055 1.016782 16.641288 9.338986 38.310780 -2.977323 -30.274419 98.690463 -77.155355 -129.236063 1.112965 7.974150 -0.538331 -0.526450 15.005169 -13.787327 -36.720320 2.339432 30.040353 -67.152873 -69.280135 105.894778 12.516748 0.800971 -2.129492 -12.720353 -63.570752 6.872525 -63.734782 82.251392 -71.760530 -2.233974 -5.137165 6.259518 0.234681 -0.668986 0.103264 11.430316 -61.924847 -7.799201 33.445254 86.750072 38.930164 -3.479267 -13.196028 1.155561 0.059873 0.233497 0.020376
-145.263703 51.658521 -60.504159 176.286454 -18.939279 0.134848 -1.868416 12.381298 0.765828 -0.151023 0.942440 0.103883 -0.256577 1.607490 0.175740 -1.714474 11.285999 1.090719 -2.132571 18.143224 -2.681713 -1.648670 -6.570906 -2.352156 1.019482 16.632911 9.327657 38.278565 -2.965234 -30.259666 98.744219 -77.170718 -129.276369 1.112362 7.962915 -0.534522 -0.516106 15.012324 -13.774441 -36.701531 2.336411 30.037431 -67.097805 -69.270835 105.839067 12.538919 0.770786 -2.137282 -12.750320 -63.576873 6.912384 -63.624195 82.258813 -71.640515 -2.250973 -5.122914 6.240392 0.247400 -0.665329 0.107443 11.422141 -61.937912 -7.779052 33.495158 86.747585 38.984724 -3.476332 -13.197507 1.149435 0.059961 0.235173 0.020759
-145.266226 51.659859 -60.502857 176.280897 -18.939704 0.144352 -1.866459 12.391728 0.757464 -0.159300 0.948930 0.102016 -0.257392 1.611424 0.175704 -1.704381 11.275759 1.092613 -2.132744 18.140039 -2.680790 -1.650047 -6.566422 -2.351821 1.017580 16.620807 9.314912 38.259828 -2.956140 -30.242763 98.715327 -77.196409 -129.240864 1.115145 7.947170 -0.539166 -0.508672 15.016166 -13.762863 -36.615231 2.377760 30.025652 -67.104887 -69.274140 105.823717 12.540289 0.776648 -2.093270 -12.760464 -63.576944 6.907836 -63.540377 82.271078 -71.561958 -2.236013 -5.117526 6.237636 0.233361 -0.664082 0.101209 11.445547 -61.933880 -7.802155 33.528344 86.743441 39.021405 -3.478152 -13.193653 1.146574 0.059417 0.231972 0.023531
-145.268206 51.661632 -60.502663 176.278359 -18.947507 0.150290 -1.873581 12.403876 0.747893 -0.159215 0.949470 0.103427 -0.258031 1.613347 0.175520 -1.713133 11.287865 1.088323 -2.122589 18.134240 -2.679072 -1.644106 -6.567787 -2.354289 1.029921 16.599810 9.303027 38.257546 -2.956061 -30.229261 98.692153 -77.206921 -129.215778 1.107360 7.950942 -0.546321 -0.484865 15.010174 -13.751481 -36.610877 2.371741 30.024190 -67.073286 -69.276965 105.791944 12.528078 0.836699 -2.045667 -12.751497 -63.569923 6.894753 -63.509626 82.273699 -71.531935 -2.231342 -5.107998 6.235812 0.228067 -0.667619 0.100604 11.462131 -61.922228 -7.817264 33.530738 86.738189 39.027093 -3.479603 -13.192649 1.146739 0.064356 0.230835 0.026547
